<mxfile host="app.diagrams.net" modified="2022-07-06T02:23:30.825Z" agent="5.0 (Windows NT 10.0; Win64; x64) AppleWebKit/537.36 (KHTML, like Gecko) Chrome/103.0.0.0 Safari/537.36" etag="JPixpF7aLYku7nlKuufy" version="20.0.4" type="github">
  <diagram id="kgpKYQtTHZ0yAKxKKP6v" name="Page-1">
    <mxGraphModel dx="2545" dy="962" grid="1" gridSize="10" guides="1" tooltips="1" connect="1" arrows="1" fold="1" page="1" pageScale="1" pageWidth="827" pageHeight="1169" math="0" shadow="0">
      <root>
        <mxCell id="0" />
        <mxCell id="1" parent="0" />
        <mxCell id="KJvHifY8ZIT3eiA5wply-36" value="降额控制时序图" style="html=1;align=center;verticalAlign=top;rounded=1;absoluteArcSize=1;arcSize=20;dashed=1;" parent="1" vertex="1">
          <mxGeometry x="-473" y="70" width="1073" height="710" as="geometry" />
        </mxCell>
        <mxCell id="3nuBFxr9cyL0pnOWT2aG-1" value="区域监控终端" style="shape=umlLifeline;perimeter=lifelinePerimeter;container=1;collapsible=0;recursiveResize=0;rounded=0;shadow=0;strokeWidth=1;" parent="1" vertex="1">
          <mxGeometry x="-273" y="210" width="100" height="510" as="geometry" />
        </mxCell>
        <mxCell id="KJvHifY8ZIT3eiA5wply-2" value="" style="html=1;points=[];perimeter=orthogonalPerimeter;" parent="3nuBFxr9cyL0pnOWT2aG-1" vertex="1">
          <mxGeometry x="45" y="70" width="10" height="40" as="geometry" />
        </mxCell>
        <mxCell id="3nuBFxr9cyL0pnOWT2aG-5" value="云端" style="shape=umlLifeline;perimeter=lifelinePerimeter;container=1;collapsible=0;recursiveResize=0;rounded=0;shadow=0;strokeWidth=1;" parent="1" vertex="1">
          <mxGeometry x="7" y="210" width="100" height="510" as="geometry" />
        </mxCell>
        <mxCell id="3nuBFxr9cyL0pnOWT2aG-6" value="" style="points=[];perimeter=orthogonalPerimeter;rounded=0;shadow=0;strokeWidth=1;" parent="3nuBFxr9cyL0pnOWT2aG-5" vertex="1">
          <mxGeometry x="42.5" y="70" width="15" height="80" as="geometry" />
        </mxCell>
        <mxCell id="KJvHifY8ZIT3eiA5wply-10" value="" style="html=1;points=[];perimeter=orthogonalPerimeter;" parent="3nuBFxr9cyL0pnOWT2aG-5" vertex="1">
          <mxGeometry x="45" y="200" width="10" height="150" as="geometry" />
        </mxCell>
        <mxCell id="3nuBFxr9cyL0pnOWT2aG-8" value="区域容量不足" style="verticalAlign=bottom;endArrow=block;entryX=0;entryY=0;shadow=0;strokeWidth=1;" parent="1" source="KJvHifY8ZIT3eiA5wply-2" target="3nuBFxr9cyL0pnOWT2aG-6" edge="1">
          <mxGeometry relative="1" as="geometry">
            <mxPoint x="-213" y="295" as="sourcePoint" />
          </mxGeometry>
        </mxCell>
        <mxCell id="EHGIB5DlItt2mFza3zOf-1" value="用户空开" style="shape=umlLifeline;perimeter=lifelinePerimeter;container=1;collapsible=0;recursiveResize=0;rounded=0;shadow=0;strokeWidth=1;fillColor=#fff2cc;strokeColor=#d6b656;" parent="1" vertex="1">
          <mxGeometry x="-133" y="210" width="100" height="510" as="geometry" />
        </mxCell>
        <mxCell id="KJvHifY8ZIT3eiA5wply-14" value="" style="html=1;points=[];perimeter=orthogonalPerimeter;" parent="EHGIB5DlItt2mFza3zOf-1" vertex="1">
          <mxGeometry x="45" y="210" width="10" height="40" as="geometry" />
        </mxCell>
        <mxCell id="EHGIB5DlItt2mFza3zOf-4" value="定时任务" style="shape=umlLifeline;perimeter=lifelinePerimeter;container=1;collapsible=0;recursiveResize=0;rounded=0;shadow=0;strokeWidth=1;" parent="1" vertex="1">
          <mxGeometry x="157" y="210" width="100" height="510" as="geometry" />
        </mxCell>
        <mxCell id="KJvHifY8ZIT3eiA5wply-21" style="edgeStyle=orthogonalEdgeStyle;rounded=0;orthogonalLoop=1;jettySize=auto;html=1;" parent="EHGIB5DlItt2mFza3zOf-4" edge="1">
          <mxGeometry relative="1" as="geometry">
            <mxPoint x="-95" y="241.66000000000003" as="sourcePoint" />
            <mxPoint x="175" y="241.66000000000003" as="targetPoint" />
            <Array as="points">
              <mxPoint x="100" y="241.66000000000003" />
              <mxPoint x="100" y="241.66000000000003" />
            </Array>
          </mxGeometry>
        </mxCell>
        <mxCell id="KJvHifY8ZIT3eiA5wply-22" value="更新增容记录" style="edgeLabel;html=1;align=center;verticalAlign=middle;resizable=0;points=[];" parent="KJvHifY8ZIT3eiA5wply-21" vertex="1" connectable="0">
          <mxGeometry x="-0.1243" y="2" relative="1" as="geometry">
            <mxPoint y="12" as="offset" />
          </mxGeometry>
        </mxCell>
        <mxCell id="KJvHifY8ZIT3eiA5wply-24" value="" style="html=1;points=[];perimeter=orthogonalPerimeter;" parent="EHGIB5DlItt2mFza3zOf-4" vertex="1">
          <mxGeometry x="45" y="280" width="10" height="30" as="geometry" />
        </mxCell>
        <mxCell id="EHGIB5DlItt2mFza3zOf-24" value="数据库" style="shape=umlLifeline;perimeter=lifelinePerimeter;container=1;collapsible=0;recursiveResize=0;rounded=0;shadow=0;strokeWidth=1;" parent="1" vertex="1">
          <mxGeometry x="287" y="210" width="100" height="510" as="geometry" />
        </mxCell>
        <mxCell id="KJvHifY8ZIT3eiA5wply-20" value="" style="html=1;points=[];perimeter=orthogonalPerimeter;" parent="EHGIB5DlItt2mFza3zOf-24" vertex="1">
          <mxGeometry x="45" y="230" width="10" height="55" as="geometry" />
        </mxCell>
        <mxCell id="KJvHifY8ZIT3eiA5wply-1" value="用户app客户端" style="shape=umlLifeline;perimeter=lifelinePerimeter;container=1;collapsible=0;recursiveResize=0;rounded=0;shadow=0;strokeWidth=1;" parent="1" vertex="1">
          <mxGeometry x="-413" y="210" width="100" height="510" as="geometry" />
        </mxCell>
        <mxCell id="KJvHifY8ZIT3eiA5wply-37" value="" style="html=1;points=[];perimeter=orthogonalPerimeter;" parent="KJvHifY8ZIT3eiA5wply-1" vertex="1">
          <mxGeometry x="45" y="70" width="10" height="80" as="geometry" />
        </mxCell>
        <mxCell id="KJvHifY8ZIT3eiA5wply-3" value="费用管理" style="shape=umlLifeline;perimeter=lifelinePerimeter;container=1;collapsible=0;recursiveResize=0;rounded=0;shadow=0;strokeWidth=1;" parent="1" vertex="1">
          <mxGeometry x="407" y="210" width="100" height="510" as="geometry" />
        </mxCell>
        <mxCell id="KJvHifY8ZIT3eiA5wply-27" value="" style="html=1;points=[];perimeter=orthogonalPerimeter;" parent="KJvHifY8ZIT3eiA5wply-3" vertex="1">
          <mxGeometry x="45" y="330" width="10" height="100" as="geometry" />
        </mxCell>
        <mxCell id="KJvHifY8ZIT3eiA5wply-5" style="edgeStyle=orthogonalEdgeStyle;rounded=0;orthogonalLoop=1;jettySize=auto;html=1;dashed=1;entryX=0.505;entryY=0.274;entryDx=0;entryDy=0;entryPerimeter=0;" parent="1" source="3nuBFxr9cyL0pnOWT2aG-6" target="KJvHifY8ZIT3eiA5wply-1" edge="1">
          <mxGeometry relative="1" as="geometry">
            <mxPoint x="-358" y="350.0000000000002" as="targetPoint" />
            <Array as="points">
              <mxPoint x="-10" y="350" />
              <mxPoint x="-10" y="350" />
            </Array>
          </mxGeometry>
        </mxCell>
        <mxCell id="KJvHifY8ZIT3eiA5wply-9" value="消息通知降容预警提醒" style="edgeLabel;html=1;align=center;verticalAlign=middle;resizable=0;points=[];" parent="KJvHifY8ZIT3eiA5wply-5" vertex="1" connectable="0">
          <mxGeometry x="0.0956" y="1" relative="1" as="geometry">
            <mxPoint as="offset" />
          </mxGeometry>
        </mxCell>
        <mxCell id="KJvHifY8ZIT3eiA5wply-6" value="增容用户" style="shape=umlActor;verticalLabelPosition=bottom;verticalAlign=top;html=1;" parent="1" vertex="1">
          <mxGeometry x="-378" y="130" width="30" height="60" as="geometry" />
        </mxCell>
        <mxCell id="KJvHifY8ZIT3eiA5wply-15" style="edgeStyle=orthogonalEdgeStyle;rounded=0;orthogonalLoop=1;jettySize=auto;html=1;" parent="1" source="KJvHifY8ZIT3eiA5wply-10" target="KJvHifY8ZIT3eiA5wply-14" edge="1">
          <mxGeometry relative="1" as="geometry">
            <Array as="points">
              <mxPoint x="7" y="430" />
              <mxPoint x="7" y="430" />
            </Array>
          </mxGeometry>
        </mxCell>
        <mxCell id="KJvHifY8ZIT3eiA5wply-16" value="下发降容服务" style="text;html=1;align=center;verticalAlign=middle;resizable=0;points=[];autosize=1;strokeColor=none;fillColor=none;" parent="1" vertex="1">
          <mxGeometry x="-63" y="405" width="100" height="30" as="geometry" />
        </mxCell>
        <mxCell id="KJvHifY8ZIT3eiA5wply-18" value="" style="edgeStyle=orthogonalEdgeStyle;rounded=0;orthogonalLoop=1;jettySize=auto;html=1;dashed=1;" parent="1" source="KJvHifY8ZIT3eiA5wply-14" target="3nuBFxr9cyL0pnOWT2aG-5" edge="1">
          <mxGeometry relative="1" as="geometry">
            <mxPoint x="-53" y="440" as="targetPoint" />
            <Array as="points">
              <mxPoint x="7" y="450" />
              <mxPoint x="7" y="450" />
            </Array>
          </mxGeometry>
        </mxCell>
        <mxCell id="KJvHifY8ZIT3eiA5wply-23" style="edgeStyle=orthogonalEdgeStyle;rounded=0;orthogonalLoop=1;jettySize=auto;html=1;dashed=1;" parent="1" source="KJvHifY8ZIT3eiA5wply-20" target="KJvHifY8ZIT3eiA5wply-10" edge="1">
          <mxGeometry relative="1" as="geometry">
            <Array as="points">
              <mxPoint x="267" y="480" />
              <mxPoint x="267" y="480" />
            </Array>
          </mxGeometry>
        </mxCell>
        <mxCell id="KJvHifY8ZIT3eiA5wply-25" style="edgeStyle=orthogonalEdgeStyle;rounded=0;orthogonalLoop=1;jettySize=auto;html=1;dashed=1;" parent="1" source="KJvHifY8ZIT3eiA5wply-10" target="KJvHifY8ZIT3eiA5wply-24" edge="1">
          <mxGeometry relative="1" as="geometry">
            <Array as="points">
              <mxPoint x="177" y="500" />
              <mxPoint x="177" y="500" />
            </Array>
          </mxGeometry>
        </mxCell>
        <mxCell id="KJvHifY8ZIT3eiA5wply-26" value="删除增容&lt;br&gt;到期任务" style="text;html=1;align=center;verticalAlign=middle;resizable=0;points=[];autosize=1;strokeColor=none;fillColor=none;" parent="1" vertex="1">
          <mxGeometry x="97" y="500" width="70" height="40" as="geometry" />
        </mxCell>
        <mxCell id="KJvHifY8ZIT3eiA5wply-29" style="edgeStyle=orthogonalEdgeStyle;rounded=0;orthogonalLoop=1;jettySize=auto;html=1;dashed=1;" parent="1" source="KJvHifY8ZIT3eiA5wply-10" target="KJvHifY8ZIT3eiA5wply-27" edge="1">
          <mxGeometry relative="1" as="geometry">
            <Array as="points">
              <mxPoint x="387" y="550" />
              <mxPoint x="387" y="550" />
            </Array>
          </mxGeometry>
        </mxCell>
        <mxCell id="KJvHifY8ZIT3eiA5wply-30" value="增容费用核算" style="edgeLabel;html=1;align=center;verticalAlign=middle;resizable=0;points=[];" parent="KJvHifY8ZIT3eiA5wply-29" vertex="1" connectable="0">
          <mxGeometry x="0.182" y="2" relative="1" as="geometry">
            <mxPoint x="-5" as="offset" />
          </mxGeometry>
        </mxCell>
        <mxCell id="KJvHifY8ZIT3eiA5wply-34" style="edgeStyle=orthogonalEdgeStyle;rounded=0;orthogonalLoop=1;jettySize=auto;html=1;entryX=0.513;entryY=0.638;entryDx=0;entryDy=0;entryPerimeter=0;dashed=1;" parent="1" source="KJvHifY8ZIT3eiA5wply-10" target="KJvHifY8ZIT3eiA5wply-1" edge="1">
          <mxGeometry relative="1" as="geometry">
            <Array as="points">
              <mxPoint x="-40" y="535" />
              <mxPoint x="-40" y="535" />
            </Array>
          </mxGeometry>
        </mxCell>
        <mxCell id="KJvHifY8ZIT3eiA5wply-35" value="降容成功提醒" style="edgeLabel;html=1;align=center;verticalAlign=middle;resizable=0;points=[];" parent="KJvHifY8ZIT3eiA5wply-34" vertex="1" connectable="0">
          <mxGeometry x="0.0813" y="2" relative="1" as="geometry">
            <mxPoint as="offset" />
          </mxGeometry>
        </mxCell>
        <mxCell id="KJvHifY8ZIT3eiA5wply-39" style="edgeStyle=orthogonalEdgeStyle;rounded=0;orthogonalLoop=1;jettySize=auto;html=1;" parent="1" source="KJvHifY8ZIT3eiA5wply-37" target="3nuBFxr9cyL0pnOWT2aG-6" edge="1">
          <mxGeometry relative="1" as="geometry" />
        </mxCell>
        <mxCell id="KJvHifY8ZIT3eiA5wply-40" value="主动撤销增容" style="edgeLabel;html=1;align=center;verticalAlign=middle;resizable=0;points=[];" parent="KJvHifY8ZIT3eiA5wply-39" vertex="1" connectable="0">
          <mxGeometry x="0.1885" relative="1" as="geometry">
            <mxPoint as="offset" />
          </mxGeometry>
        </mxCell>
      </root>
    </mxGraphModel>
  </diagram>
</mxfile>
